# xmcd
#
# Track frame offsets:
#	150
#	12880
#	32045
#	45360
#	62775
#	83782
#	99587
#	114612
#	126005
#	140175
#	151562
#
# Disc length: 2189 seconds
# Revision: 7
# Processed by: cddbd v1.5.2PL0 Copyright (c) Steve Scherf et al.
# Submitted via: dBpowerAMP V12.0
#
DISCID=86088b0b
DTITLE=Various Artist - Platinum Country
DYEAR=1996
DGENRE=Country
TTITLE0=Trisha Yearwood - Xxx's and Ooo's (an American Girl)
TTITLE1=Vince Gill - When I Call Your Name
TTITLE2=Marty Stuart - Burn Me Down
TTITLE3=Mavericks, The - What a Crying Shame
TTITLE4=Reba McEntire - Please Come to Boston
TTITLE5=George Jones - I Don't Need Your Rockin' Chair
TTITLE6=McBride and the Ride - Sacred Ground
TTITLE7=Patty Loveless - Timber, I'm Falling in Love
TTITLE8=George Strait - I Know She Still Loves Me
TTITLE9=Tracy Byrd - Holdin' Heaven
TTITLE10=Mark Chesnutt - Your Love Is A Miracle
EXTD=
EXTT0=
EXTT1=
EXTT2=
EXTT3=
EXTT4=
EXTT5=
EXTT6=
EXTT7=
EXTT8=
EXTT9=
EXTT10=
PLAYORDER=
